<svg xmlns="http://www.w3.org/2000/svg" width="31.764" height="31.766" viewBox="0 0 31.764 31.766">
  <g id="chat" transform="translate(-0.014 0)">
    <g id="Group_32" data-name="Group 32" transform="translate(0.014 0)">
      <g id="Group_31" data-name="Group 31" transform="translate(0 0)">
        <path id="Path_21" data-name="Path 21" d="M31.461,12.748A15.88,15.88,0,0,0,13.258.221l-.079.012A15.885,15.885,0,0,0,.746,20.638,11.885,11.885,0,0,1,.14,29.213a1.323,1.323,0,0,0,1.546,1.839l5.931-1.62a15.739,15.739,0,0,0,8.243,2.333,16.008,16.008,0,0,0,3.168-.318,15.879,15.879,0,0,0,12.433-18.7ZM26.913,23.207A13.229,13.229,0,0,1,8.567,26.9a1.327,1.327,0,0,0-.733-.221,1.35,1.35,0,0,0-.348.046l-4.04,1.1a14.556,14.556,0,0,0-.172-7.978,13.07,13.07,0,0,1-.415-1.706A13.247,13.247,0,0,1,13.57,2.852l.071-.011A13.231,13.231,0,0,1,26.913,23.207Z" transform="translate(-0.014 0)" fill="#707070"/>
      </g>
    </g>
    <g id="Group_34" data-name="Group 34" transform="translate(9.276 11.911)">
      <g id="Group_33" data-name="Group 33">
        <path id="Path_22" data-name="Path 22" d="M161.218,191.991H150.632a1.323,1.323,0,1,0,0,2.647h10.586a1.323,1.323,0,1,0,0-2.647Z" transform="translate(-149.309 -191.991)" fill="#707070"/>
      </g>
    </g>
    <g id="Group_36" data-name="Group 36" transform="translate(9.276 17.204)">
      <g id="Group_35" data-name="Group 35">
        <path id="Path_23" data-name="Path 23" d="M161.218,277.306H150.632a1.323,1.323,0,0,0,0,2.647h10.586a1.323,1.323,0,0,0,0-2.647Z" transform="translate(-149.309 -277.306)" fill="#707070"/>
      </g>
    </g>
  </g>
</svg>
