<svg xmlns="http://www.w3.org/2000/svg" width="42.836" height="40.16" viewBox="0 0 42.836 40.16">
  <g id="chat_1_" data-name="chat(1)" transform="translate(0 -15.993)">
    <g id="Group_38" data-name="Group 38" transform="translate(0 15.993)">
      <g id="Group_37" data-name="Group 37">
        <path id="Path_27" data-name="Path 27" d="M39.071,21.013H35.307V19.758a3.769,3.769,0,0,0-3.765-3.765H3.765A3.769,3.769,0,0,0,0,19.758v20.08A3.769,3.769,0,0,0,3.765,43.6H7.53v6.275a1.256,1.256,0,0,0,2.142.887l2.142-2.142H26l7.162,7.162a1.256,1.256,0,0,0,2.142-.887V48.622h3.765a3.769,3.769,0,0,0,3.765-3.765V24.778A3.769,3.769,0,0,0,39.071,21.013ZM10.04,46.847v-4.5a1.255,1.255,0,0,0-1.255-1.255H3.765A1.256,1.256,0,0,1,2.51,39.837V19.758A1.256,1.256,0,0,1,3.765,18.5H31.542A1.256,1.256,0,0,1,32.8,19.758v20.08a1.256,1.256,0,0,1-1.255,1.255H16.315a1.255,1.255,0,0,0-.887.368Zm30.287-1.99a1.256,1.256,0,0,1-1.255,1.255h-5.02A1.255,1.255,0,0,0,32.8,47.367v4.5L27.409,46.48a1.255,1.255,0,0,0-.887-.368h-12.2l2.51-2.51H31.542a3.769,3.769,0,0,0,3.765-3.765V23.523h3.765a1.256,1.256,0,0,1,1.255,1.255Z" transform="translate(0 -15.993)" fill="#707070"/>
      </g>
    </g>
    <g id="Group_40" data-name="Group 40" transform="translate(5.02 23.523)">
      <g id="Group_39" data-name="Group 39">
        <path id="Path_28" data-name="Path 28" d="M78.992,105.993H61.255a1.255,1.255,0,0,0,0,2.51H78.992a1.255,1.255,0,1,0,0-2.51Z" transform="translate(-60 -105.993)" fill="#707070"/>
      </g>
    </g>
    <g id="Group_42" data-name="Group 42" transform="translate(5.02 28.543)">
      <g id="Group_41" data-name="Group 41">
        <path id="Path_29" data-name="Path 29" d="M84.012,165.993H61.255a1.255,1.255,0,0,0,0,2.51H84.012a1.255,1.255,0,0,0,0-2.51Z" transform="translate(-60 -165.993)" fill="#707070"/>
      </g>
    </g>
    <g id="Group_44" data-name="Group 44" transform="translate(5.02 33.563)">
      <g id="Group_43" data-name="Group 43">
        <path id="Path_30" data-name="Path 30" d="M73.972,225.993H61.255a1.255,1.255,0,1,0,0,2.51H73.972a1.255,1.255,0,1,0,0-2.51Z" transform="translate(-60 -225.993)" fill="#707070"/>
      </g>
    </g>
  </g>
</svg>
