<svg xmlns="http://www.w3.org/2000/svg" width="32.272" height="35.878" viewBox="0 0 32.272 35.878">
  <g id="share-button" transform="translate(-25.5)">
    <g id="share-alt" transform="translate(25.5)">
      <path id="Path_26" data-name="Path 26" d="M52.544,12.62a5.034,5.034,0,0,0-3.606,1.442l-12.8-7.392a3.068,3.068,0,0,0,.18-1.262,5.409,5.409,0,1,0-10.818,0,5.312,5.312,0,0,0,5.409,5.409,5.034,5.034,0,0,0,3.606-1.442l12.8,7.392a3.068,3.068,0,0,0-.18,1.262,3.068,3.068,0,0,0,.18,1.262l-12.8,7.572a5.034,5.034,0,0,0-3.606-1.442,5.228,5.228,0,1,0,5.228,5.228,3.52,3.52,0,0,0-.18-1.262l12.8-7.572a5.034,5.034,0,0,0,3.606,1.442,5.312,5.312,0,0,0,5.409-5.409A5.017,5.017,0,0,0,52.544,12.62Z" transform="translate(-25.5)" fill="#707070"/>
    </g>
  </g>
</svg>
