<svg xmlns="http://www.w3.org/2000/svg" width="40.953" height="48.537" viewBox="0 0 40.953 48.537">
  <g id="verified" transform="translate(-40 0)">
    <path id="Path_6" data-name="Path 6" d="M79.784,7.859,61.2.145a1.9,1.9,0,0,0-1.454,0L41.169,7.859A1.9,1.9,0,0,0,40,9.61v9.378A31.751,31.751,0,0,0,59.76,48.4a1.9,1.9,0,0,0,1.433,0,31.751,31.751,0,0,0,19.76-29.408V9.61A1.9,1.9,0,0,0,79.784,7.859ZM77.161,18.988A27.966,27.966,0,0,1,60.476,44.582,27.966,27.966,0,0,1,43.792,18.988V10.876L60.476,3.949l16.685,6.927Zm-18.78,6.391L66.53,17.23a1.9,1.9,0,1,1,2.681,2.681l-9.49,9.49a1.9,1.9,0,0,1-2.681,0l-5.3-5.3a1.9,1.9,0,1,1,2.681-2.681Z" fill="#53c711"/>
  </g>
</svg>
